<?xml version="1.0" standalone="no"?>
<!DOCTYPE svg PUBLIC "-//W3C//DTD SVG 20010904//EN"
 "http://www.w3.org/TR/2001/REC-SVG-20010904/DTD/svg10.dtd">
<svg version="1.0" xmlns="http://www.w3.org/2000/svg"
 width="512.000000pt" height="512.000000pt" viewBox="0 0 512.000000 512.000000"
 preserveAspectRatio="xMidYMid meet">

<g transform="translate(0.000000,512.000000) scale(0.100000,-0.100000)"
fill="#000000" stroke="none">
<path d="M775 4028 c-8 -35 -55 -311 -55 -325 0 -7 7 -13 16 -13 26 0 74 -56
74 -86 0 -31 -139 -754 -394 -2047 -13 -65 -25 -120 -28 -122 -3 -3 -32 -8
-66 -11 -56 -6 -61 -9 -66 -33 -13 -61 -56 -310 -56 -320 0 -8 73 -11 244 -11
224 0 245 1 250 18 3 9 46 224 96 477 50 253 131 660 180 905 50 245 117 584
149 754 33 170 64 313 69 318 6 6 18 8 27 6 19 -3 73 -115 462 -963 36 -77
104 -225 153 -330 48 -104 181 -392 295 -640 114 -247 218 -471 231 -497 l24
-48 285 0 c157 0 285 3 285 8 0 4 14 81 30 172 17 91 30 168 30 173 0 4 -9 7
-20 7 -12 0 -33 12 -47 26 -24 24 -25 30 -19 87 4 34 21 130 39 212 l32 150
415 6 415 5 120 32 c513 137 908 585 976 1107 30 231 -46 503 -191 682 -104
129 -264 233 -446 290 l-89 28 -952 3 -951 3 -6 -28 c-5 -24 -56 -315 -56
-319 0 -1 18 -4 40 -8 27 -4 45 -14 56 -31 16 -24 13 -42 -57 -394 l-73 -368
128 -264 c70 -145 131 -267 135 -272 4 -4 68 295 142 665 l135 673 684 0 c747
0 737 1 860 -59 84 -40 187 -138 228 -214 111 -207 79 -499 -79 -733 -52 -77
-163 -195 -242 -256 -77 -59 -203 -125 -307 -159 l-85 -28 -363 -4 c-348 -3
-364 -3 -359 15 3 10 58 281 122 603 64 321 119 588 121 592 3 5 -81 7 -188 6
l-193 -3 -42 -205 c-23 -113 -101 -495 -174 -849 -72 -355 -135 -655 -140
-668 -26 -70 -39 -47 -577 1072 -167 348 -309 643 -470 980 l-120 250 -316 3
-316 2 -5 -22z"/>
<path d="M1296 2788 c-3 -18 -31 -158 -60 -311 l-54 -278 133 -287 c73 -158
191 -413 262 -567 l130 -280 202 -3 202 -2 -6 21 c-4 12 -34 78 -67 148 -33
69 -94 200 -135 291 -42 91 -124 270 -184 398 -60 128 -109 234 -109 237 0 2
-41 90 -91 197 -50 106 -118 254 -151 328 -33 74 -62 136 -63 138 -1 2 -5 -12
-9 -30z"/>
</g>
</svg>
